#!OML:ASF H:\LiuWeirdWalks\Patient Classification 1\Patient 1\Session 1\male.ASF
:FULLY-SPECIFIED
:DEGREES
994
root 1.00593 18.1276 21.8231 1.27446 -0.905466 -6.89009
lowerback 3.19879 -0.357463 7.3925
upperback 0.293546 -0.130935 5.32109
thorax -1.5 -0.097571 1.3612
lowerneck -17.4588 -0.541818 0.874539
upperneck 22.0868 0.279986 -5.14437
head 9.91751 -0.405325 -1.9156
rclavicle -1.16289e-014 8.74653e-015
rhumerus -40.2118 -14.6814 -70.0231
rradius 26.4903
rwrist -5.196
rhand -17.5016 -2.37228
rfingers 7.12502
rthumb 8.75134 -32.1709
lclavicle -1.16289e-014 8.74653e-015
lhumerus -33.7931 -5.12139 90.5949
lradius 40.9063
lwrist 10.7591
lhand -11.5922 -2.82783
lfingers 7.12502
lthumb 14.45 26.6491
rfemur 6.28723 4.27303 31.5945
rtibia 11.5619
rfoot -8.1824 -16.7673
rtoes -3.50256
lfemur -30.1768 1.24795 -6.96475
ltibia 25.8845
lfoot -8.12158 13.7664
ltoes -4.90463
995
root 1.02457 18.1216 21.8912 1.3487 -1.0196 -6.96498
lowerback 3.04183 -0.429281 7.37738
upperback 0.365562 -0.2521 5.31796
thorax -1.34055 -0.153268 1.36982
lowerneck -17.5825 -0.453079 1.05752
upperneck 22.0772 0.368677 -5.21287
head 9.94033 -0.358442 -1.95968
rclavicle 4.12478e-015 7.23576e-014
rhumerus -40.0598 -14.6393 -70.1732
rradius 26.4034
rwrist -5.13331
rhand -17.5019 -2.39057
rfingers 7.12502
rthumb 8.75105 -32.1892
lclavicle 4.12478e-015 7.23576e-014
lhumerus -33.7059 -4.82105 90.3799
lradius 40.7286
lwrist 10.6613
lhand -11.5358 -2.8465
lfingers 7.12502
lthumb 14.5043 26.6265
rfemur 6.72901 4.38748 31.6295
rtibia 11.0375
rfoot -8.08108 -16.7658
rtoes -3.54172
lfemur -30.2776 1.29218 -6.96543
ltibia 25.4722
lfoot -8.20963 14.0981
ltoes -4.82061
996
root 1.04389 18.1159 21.96 1.43844 -1.12513 -7.02628
lowerback 2.85495 -0.655285 7.09223
upperback 0.452946 -0.590537 5.42956
thorax -1.15099 -0.315387 1.65437
lowerneck -17.6689 -0.168797 1.46414
upperneck 21.9897 0.720095 -5.51022
head 9.94028 -0.197209 -2.08489
rclavicle -1.32689e-014 1.90833e-014
rhumerus -39.6825 -14.1266 -70.4945
rradius 26.2689
rwrist -5.06447
rhand -17.5032 -2.39597
rfingers 7.12502
rthumb 8.74979 -32.1946
lclavicle -1.32689e-014 1.90833e-014
lhumerus -33.6467 -3.9882 90.0417
lradius 40.5696
lwrist 10.5108
lhand -11.4754 -2.8938
lfingers 7.12502
lthumb 14.5625 26.575
rfemur 7.17212 4.48287 31.6398
rtibia 10.4814
rfoot -7.97153 -16.741
rtoes -3.58582
lfemur -30.3838 1.33932 -6.99056
ltibia 25.0883
lfoot -8.3197 14.4539
ltoes -4.75588
997
root 1.0623 18.1095 22.0294 1.53072 -1.24566 -7.11932
lowerback 2.6831 -1.2363 6.28587
upperback 0.608836 -1.41917 5.76296
thorax -0.884228 -0.720657 2.47382
lowerneck -17.8325 0.570647 2.43857
upperneck 21.8411 1.65645 -6.27292
head 9.97088 0.226325 -2.39051
rclavicle -7.85199e-015 -6.04305e-014
rhumerus -38.7488 -12.635 -71.2781
rradius 25.9894
rwrist -4.96129
rhand -17.5088 -2.32605
rfingers 7.12502
rthumb 8.74439 -32.1249
lclavicle -7.85199e-015 -6.04305e-014
lhumerus -33.6238 -2.00412 89.332
lradius 40.4849
lwrist 10.312
lhand -11.4391 -2.95893
lfingers 7.12502
lthumb 14.5974 26.5074
rfemur 7.6301 4.63024 31.6977
rtibia 9.89569
rfoot -7.83593 -16.7436
rtoes -3.60972
lfemur -30.4808 1.41169 -6.97854
ltibia 24.7344
lfoot -8.4457 14.8276
ltoes -4.68253
998
root 1.08085 18.1027 22.099 1.63624 -1.37759 -7.23246
lowerback 2.53951 -1.75558 5.51312
upperback 0.735266 -2.15805 6.12635
thorax -0.632567 -1.08663 3.3007
lowerneck -17.9283 1.23165 3.23502
upperneck 21.6903 2.51791 -6.97652
head 9.99952 0.607898 -2.65441
rclavicle 1.17283e-014 -9.54166e-015
rhumerus -37.9117 -11.2195 -71.8818
rradius 25.7195
rwrist -4.87991
rhand -17.5094 -2.2298
rfingers 7.12502
rthumb 8.74378 -32.0287
lclavicle 1.17283e-014 -9.54166e-015
lhumerus -33.636 -0.150484 88.7776
lradius 40.3926
lwrist 10.1448
lhand -11.4178 -3.00701
lfingers 7.12502
lthumb 14.6179 26.4578
rfemur 8.08727 4.7915 31.7787
rtibia 9.28635
rfoot -7.68179 -16.7431
rtoes -3.62242
lfemur -30.579 1.49047 -6.9406
ltibia 24.4097
lfoot -8.57527 15.2342
ltoes -4.79867
999
root 1.09919 18.0953 22.1685 1.75009 -1.52624 -7.35676
lowerback 2.40709 -2.51386 4.36961
upperback 0.926614 -3.23071 6.63726
thorax -0.248864 -1.62649 4.49433
lowerneck -17.9976 2.20093 4.40362
upperneck 21.4449 3.77756 -8.00284
head 10.0463 1.1678 -3.0382
rclavicle 5.54609e-014 -1.1291e-013
rhumerus -36.701 -9.07358 -72.7716
rradius 25.3771
rwrist -4.82433
rhand -17.5254 -2.13796
rfingers 7.12502
rthumb 8.7284 -31.9375
lclavicle 5.54609e-014 -1.1291e-013
lhumerus -33.6772 2.48531 87.9918
lradius 40.3714
lwrist 9.97915
lhand -11.4206 -3.03415
lfingers 7.12502
lthumb 14.6153 26.4309
rfemur 8.55823 4.97056 31.8759
rtibia 8.63331
rfoot -7.49543 -16.7371
rtoes -3.62773
lfemur -30.6725 1.57298 -6.88135
ltibia 24.1197
lfoot -8.72151 15.673
ltoes -4.94144
1000
root 1.11807 18.0879 22.2391 1.87122 -1.67719 -7.46709
lowerback 2.29085 -3.12476 3.51775
upperback 1.0863 -4.09542 6.98384
thorax 0.107768 -2.06882 5.34367
lowerneck -18.0481 2.99132 5.40879
upperneck 21.238 4.77839 -8.79996
head 10.1028 1.62109 -3.34788
rclavicle 5.69518e-014 -1.27222e-014
rhumerus -35.7412 -7.40341 -73.5305
rradius 25.0727
rwrist -4.74872
rhand -17.5526 -2.07345
rfingers 7.12502
rthumb 8.70211 -31.8741
lclavicle 5.69518e-014 -1.27222e-014
lhumerus -33.7323 4.55675 87.2776
lradius 40.3444
lwrist 9.92013
lhand -11.4229 -2.98066
lfingers 7.12502
lthumb 14.6131 26.4845
rfemur 9.05772 5.15529 31.9552
rtibia 7.91584
rfoot -7.26847 -16.7285
rtoes -3.64462
lfemur -30.7579 1.64723 -6.83677
ltibia 23.8692
lfoot -8.88055 16.1346
ltoes -5.1607
1001
root 1.13849 18.0806 22.311 2.00563 -1.81127 -7.57244
lowerback 2.14535 -3.69667 2.74253
upperback 1.24294 -4.90846 7.2953
thorax 0.500875 -2.49118 6.10421
lowerneck -18.0408 3.72438 6.34945
upperneck 21.0083 5.70556 -9.5472
head 10.1509 2.04237 -3.63725
rclavicle -2.65378e-014 -1.11319e-014
rhumerus -34.8586 -5.82406 -74.2244
rradius 24.8056
rwrist -4.69927
rhand -17.5773 -1.99679
rfingers 7.12502
rthumb 8.67829 -31.7984
lclavicle -2.65378e-014 -1.11319e-014
lhumerus -33.793 6.47379 86.6159
lradius 40.3199
lwrist 9.90961
lhand -11.4414 -2.8928
lfingers 7.12502
lthumb 14.5953 26.5737
rfemur 9.59679 5.32717 32.0178
rtibia 7.09855
rfoot -6.98592 -16.7103
rtoes -3.69703
lfemur -30.8502 1.71667 -6.80883
ltibia 23.6666
lfoot -9.04729 16.5892
ltoes -5.36483
1002
root 1.15946 18.0726 22.384 2.14704 -1.94362 -7.71886
lowerback 1.9974 -4.12613 2.21706
upperback 1.36184 -5.52127 7.53776
thorax 0.83615 -2.81374 6.64469
lowerneck -18.0186 4.27567 7.07037
upperneck 20.8101 6.39945 -10.1146
head 10.1874 2.35883 -3.85796
rclavicle 4.35338e-014 -6.99722e-014
rhumerus -34.2037 -4.6355 -74.7405
rradius 24.606
rwrist -4.66244
rhand -17.5863 -1.94398
rfingers 7.12502
rthumb 8.66962 -31.746
lclavicle 4.35338e-014 -6.99722e-014
lhumerus -33.8517 7.94721 86.0981
lradius 40.256
lwrist 9.87398
lhand -11.4389 -2.82365
lfingers 7.12502
lthumb 14.5976 26.6426
rfemur 10.2093 5.50034 32.1228
rtibia 6.12607
rfoot -6.61632 -16.6749
rtoes -3.7946
lfemur -30.9424 1.79435 -6.73755
ltibia 23.5182
lfoot -9.21579 17.0233
ltoes -5.46375
1003
root 1.18086 18.0642 22.4586 2.29551 -2.06812 -7.88554
lowerback 1.8901 -4.6204 1.57466
upperback 1.48899 -6.22354 7.8577
thorax 1.20706 -3.18941 7.33192
lowerneck -18.0106 4.90776 7.84724
upperneck 20.5927 7.2154 -10.7855
head 10.2506 2.72393 -4.10542
rclavicle -6.44062e-014 -3.33958e-014
rhumerus -33.4599 -3.16558 -75.2748
rradius 24.419
rwrist -4.69782
rhand -17.5824 -1.93641
rfingers 7.12502
rthumb 8.67338 -31.7382
lclavicle -6.44062e-014 -3.33958e-014
lhumerus -33.9231 9.68715 85.5642
lradius 40.1888
lwrist 9.74889
lhand -11.4 -2.80282
lfingers 7.12502
lthumb 14.6351 26.6607
rfemur 10.9435 5.66898 32.2467
rtibia 4.905
rfoot -6.12184 -16.6079
rtoes -3.93411
lfemur -31.0384 1.89278 -6.65397
ltibia 23.4301
lfoot -9.38366 17.4027
ltoes -5.40488
